<mxfile host="app.diagrams.net" agent="Mozilla/5.0 (Windows NT 10.0; Win64; x64) AppleWebKit/537.36 (KHTML, like Gecko) Chrome/128.0.0.0 Safari/537.36" version="24.7.8">
  <diagram name="PÃ¡gina-1" id="MBEfy_lfm2K7Kf6HqTqG">
    <mxGraphModel dx="794" dy="1615" grid="1" gridSize="10" guides="1" tooltips="1" connect="1" arrows="1" fold="1" page="1" pageScale="1" pageWidth="827" pageHeight="1169" math="0" shadow="0">
      <root>
        <mxCell id="0" />
        <mxCell id="1" parent="0" />
        <mxCell id="TNTz0xo-lrR2Krc9X6VH-12" style="edgeStyle=orthogonalEdgeStyle;rounded=0;orthogonalLoop=1;jettySize=auto;html=1;entryX=0;entryY=0.75;entryDx=0;entryDy=0;" edge="1" parent="1" source="TNTz0xo-lrR2Krc9X6VH-1" target="TNTz0xo-lrR2Krc9X6VH-5">
          <mxGeometry relative="1" as="geometry" />
        </mxCell>
        <mxCell id="TNTz0xo-lrR2Krc9X6VH-20" style="edgeStyle=orthogonalEdgeStyle;rounded=0;orthogonalLoop=1;jettySize=auto;html=1;exitX=0;exitY=0.5;exitDx=0;exitDy=0;entryX=0;entryY=0.5;entryDx=0;entryDy=0;" edge="1" parent="1" source="TNTz0xo-lrR2Krc9X6VH-1" target="TNTz0xo-lrR2Krc9X6VH-7">
          <mxGeometry relative="1" as="geometry" />
        </mxCell>
        <mxCell id="TNTz0xo-lrR2Krc9X6VH-1" value="Account" style="rounded=0;whiteSpace=wrap;html=1;fillColor=#fff2cc;strokeColor=#d6b656;" vertex="1" parent="1">
          <mxGeometry x="60" y="50" width="120" height="60" as="geometry" />
        </mxCell>
        <mxCell id="TNTz0xo-lrR2Krc9X6VH-3" value="" style="endArrow=classic;html=1;rounded=0;exitX=1;exitY=0.5;exitDx=0;exitDy=0;" edge="1" parent="1" source="TNTz0xo-lrR2Krc9X6VH-1">
          <mxGeometry width="50" height="50" relative="1" as="geometry">
            <mxPoint x="380" y="260" as="sourcePoint" />
            <mxPoint x="290" y="80" as="targetPoint" />
          </mxGeometry>
        </mxCell>
        <mxCell id="TNTz0xo-lrR2Krc9X6VH-11" style="edgeStyle=orthogonalEdgeStyle;rounded=0;orthogonalLoop=1;jettySize=auto;html=1;entryX=0.5;entryY=0;entryDx=0;entryDy=0;" edge="1" parent="1" source="TNTz0xo-lrR2Krc9X6VH-4" target="TNTz0xo-lrR2Krc9X6VH-5">
          <mxGeometry relative="1" as="geometry" />
        </mxCell>
        <mxCell id="TNTz0xo-lrR2Krc9X6VH-16" style="edgeStyle=orthogonalEdgeStyle;rounded=0;orthogonalLoop=1;jettySize=auto;html=1;exitX=0;exitY=0.25;exitDx=0;exitDy=0;entryX=1;entryY=0.25;entryDx=0;entryDy=0;" edge="1" parent="1" source="TNTz0xo-lrR2Krc9X6VH-4" target="TNTz0xo-lrR2Krc9X6VH-1">
          <mxGeometry relative="1" as="geometry" />
        </mxCell>
        <mxCell id="TNTz0xo-lrR2Krc9X6VH-18" style="edgeStyle=orthogonalEdgeStyle;rounded=0;orthogonalLoop=1;jettySize=auto;html=1;exitX=1;exitY=0.5;exitDx=0;exitDy=0;entryX=1;entryY=0.75;entryDx=0;entryDy=0;" edge="1" parent="1" source="TNTz0xo-lrR2Krc9X6VH-4" target="TNTz0xo-lrR2Krc9X6VH-6">
          <mxGeometry relative="1" as="geometry" />
        </mxCell>
        <mxCell id="TNTz0xo-lrR2Krc9X6VH-4" value="Contact" style="rounded=0;whiteSpace=wrap;html=1;fillColor=#dae8fc;strokeColor=#6c8ebf;" vertex="1" parent="1">
          <mxGeometry x="294" y="50" width="120" height="60" as="geometry" />
        </mxCell>
        <mxCell id="TNTz0xo-lrR2Krc9X6VH-17" style="edgeStyle=orthogonalEdgeStyle;rounded=0;orthogonalLoop=1;jettySize=auto;html=1;entryX=0.5;entryY=0;entryDx=0;entryDy=0;" edge="1" parent="1" source="TNTz0xo-lrR2Krc9X6VH-5" target="TNTz0xo-lrR2Krc9X6VH-6">
          <mxGeometry relative="1" as="geometry" />
        </mxCell>
        <mxCell id="TNTz0xo-lrR2Krc9X6VH-26" style="edgeStyle=orthogonalEdgeStyle;rounded=0;orthogonalLoop=1;jettySize=auto;html=1;entryX=0.879;entryY=0.044;entryDx=0;entryDy=0;entryPerimeter=0;" edge="1" parent="1" source="TNTz0xo-lrR2Krc9X6VH-5" target="TNTz0xo-lrR2Krc9X6VH-7">
          <mxGeometry relative="1" as="geometry">
            <mxPoint x="610" y="430" as="targetPoint" />
          </mxGeometry>
        </mxCell>
        <mxCell id="TNTz0xo-lrR2Krc9X6VH-5" value="Contract" style="rounded=0;whiteSpace=wrap;html=1;fillColor=#d5e8d4;strokeColor=#82b366;" vertex="1" parent="1">
          <mxGeometry x="180" y="160" width="234" height="60" as="geometry" />
        </mxCell>
        <mxCell id="TNTz0xo-lrR2Krc9X6VH-23" style="edgeStyle=orthogonalEdgeStyle;rounded=0;orthogonalLoop=1;jettySize=auto;html=1;entryX=0;entryY=0.25;entryDx=0;entryDy=0;" edge="1" parent="1" source="TNTz0xo-lrR2Krc9X6VH-6" target="TNTz0xo-lrR2Krc9X6VH-7">
          <mxGeometry relative="1" as="geometry" />
        </mxCell>
        <mxCell id="TNTz0xo-lrR2Krc9X6VH-6" value="Opportunity" style="rounded=0;whiteSpace=wrap;html=1;fillColor=#e1d5e7;strokeColor=#9673a6;" vertex="1" parent="1">
          <mxGeometry x="140" y="310" width="120" height="60" as="geometry" />
        </mxCell>
        <mxCell id="TNTz0xo-lrR2Krc9X6VH-7" value="Asset" style="rounded=0;whiteSpace=wrap;html=1;fillColor=#f8cecc;strokeColor=#b85450;" vertex="1" parent="1">
          <mxGeometry x="380" y="410" width="260" height="60" as="geometry" />
        </mxCell>
        <mxCell id="TNTz0xo-lrR2Krc9X6VH-8" value="Quote Member" style="rounded=0;whiteSpace=wrap;html=1;fillColor=#60a917;fontColor=#ffffff;strokeColor=#2D7600;" vertex="1" parent="1">
          <mxGeometry x="430" y="-20" width="134" height="60" as="geometry" />
        </mxCell>
        <mxCell id="TNTz0xo-lrR2Krc9X6VH-13" style="edgeStyle=orthogonalEdgeStyle;rounded=0;orthogonalLoop=1;jettySize=auto;html=1;exitX=0;exitY=0.5;exitDx=0;exitDy=0;entryX=0.606;entryY=1.056;entryDx=0;entryDy=0;entryPerimeter=0;" edge="1" parent="1" source="TNTz0xo-lrR2Krc9X6VH-5" target="TNTz0xo-lrR2Krc9X6VH-1">
          <mxGeometry relative="1" as="geometry" />
        </mxCell>
        <mxCell id="TNTz0xo-lrR2Krc9X6VH-19" style="edgeStyle=orthogonalEdgeStyle;rounded=0;orthogonalLoop=1;jettySize=auto;html=1;entryX=0.161;entryY=1.044;entryDx=0;entryDy=0;entryPerimeter=0;exitX=0;exitY=0.5;exitDx=0;exitDy=0;" edge="1" parent="1" source="TNTz0xo-lrR2Krc9X6VH-6">
          <mxGeometry relative="1" as="geometry">
            <mxPoint x="190" y="320" as="sourcePoint" />
            <mxPoint x="80.00000000000006" y="109.99999999999999" as="targetPoint" />
          </mxGeometry>
        </mxCell>
        <mxCell id="TNTz0xo-lrR2Krc9X6VH-28" style="edgeStyle=orthogonalEdgeStyle;rounded=0;orthogonalLoop=1;jettySize=auto;html=1;entryX=0.622;entryY=0.05;entryDx=0;entryDy=0;entryPerimeter=0;" edge="1" parent="1" source="TNTz0xo-lrR2Krc9X6VH-8" target="TNTz0xo-lrR2Krc9X6VH-1">
          <mxGeometry relative="1" as="geometry" />
        </mxCell>
      </root>
    </mxGraphModel>
  </diagram>
</mxfile>
